# xmcd
#
# Track frame offsets:
#	150
#	13875
#	22670
#	38041
#	54846
#	70649
#	88897
#	103815
#	119387
#	138186
#	149435
#	172548
#
# Disc length: 2528 seconds
#
# Revision: 1
# Processed by: cddbd v1.5.1PL2 Copyright (c) Steve Scherf et al.
# Submitted via: audiograbber 1.83.01
#
DISCID=9209de0c
DTITLE=Jamie Hartford and Friends - Part of Your History
DYEAR=2005
DGENRE=Country
TTITLE0=Back in The Goodle Days
TTITLE1=Holdin'
TTITLE2=Natural to Be Gone
TTITLE3=Today
TTITLE4=Presbyterian Guitar
TTITLE5=First Girl I Ever Loved
TTITLE6=In Tall Buildings
TTITLE7=Part of Your History
TTITLE8=Don't Put Him Down For It Now
TTITLE9=Wish We Had Our Time Again
TTITLE10=Old Time River Man
TTITLE11=Gentle On My Mind
EXTD=
EXTT0=
EXTT1=
EXTT2=
EXTT3=
EXTT4=
EXTT5=
EXTT6=
EXTT7=
EXTT8=
EXTT9=
EXTT10=
EXTT11=
PLAYORDER=
